<?xml version="1.0" standalone="no"?>
<!DOCTYPE svg PUBLIC "-//W3C//DTD SVG 20010904//EN"
 "http://www.w3.org/TR/2001/REC-SVG-20010904/DTD/svg10.dtd">
<svg version="1.0" xmlns="http://www.w3.org/2000/svg"
 width="2224.000000pt" height="2224.000000pt" viewBox="0 0 2224.000000 2224.000000"
 preserveAspectRatio="xMidYMid meet">
<metadata>
Created by potrace 1.11, written by Peter Selinger 2001-2013
</metadata>
<g transform="translate(0.000000,2224.000000) scale(0.100000,-0.100000)"
fill="#000000" stroke="none">
<path d="M2582 15997 c-78 -18 -172 -60 -232 -104 -62 -45 -168 -159 -210
-225 -22 -35 -44 -68 -49 -74 -9 -11 -131 -281 -131 -291 0 -2 -11 -29 -25
-59 -14 -30 -25 -56 -25 -58 0 -2 -7 -21 -16 -42 -9 -22 -16 -41 -16 -44 0 -3
-7 -13 -15 -22 -9 -10 -13 -18 -8 -18 4 0 3 -6 -3 -12 -6 -7 -11 -16 -12 -20
-1 -7 -38 -95 -60 -143 -5 -11 -18 -42 -30 -70 -12 -27 -30 -67 -41 -87 -11
-21 -18 -38 -15 -38 2 0 -8 -26 -24 -57 -16 -31 -27 -60 -24 -65 3 -4 1 -8 -4
-8 -11 0 -49 -117 -57 -176 -7 -55 -10 -178 -3 -190 2 -5 6 -29 7 -53 2 -24 5
-54 7 -65 13 -54 18 -83 18 -103 1 -13 4 -23 7 -23 4 0 10 -15 14 -32 4 -18 9
-37 10 -43 7 -25 99 -233 115 -260 10 -16 19 -34 20 -40 4 -21 44 -101 59
-119 9 -10 14 -19 13 -20 -8 -3 31 -86 39 -86 5 0 9 -7 9 -15 0 -8 11 -34 23
-57 35 -63 134 -251 169 -319 17 -33 34 -62 39 -65 5 -3 7 -10 4 -15 -4 -5 -1
-9 4 -9 6 0 11 -6 11 -12 0 -10 -129 -13 -617 -12 -340 1 -626 0 -635 -3 -10
-2 -18 -8 -18 -13 0 -4 -14 -39 -32 -77 -17 -37 -32 -70 -33 -73 -4 -12 -26
-63 -45 -104 -11 -25 -20 -50 -20 -55 0 -6 -4 -11 -10 -11 -5 0 -9 -3 -8 -7 3
-15 -14 -63 -23 -63 -5 0 -9 -7 -9 -16 0 -9 -6 -28 -14 -42 -8 -15 -21 -43
-29 -62 -8 -19 -26 -60 -40 -90 -52 -115 -70 -155 -72 -165 -2 -5 -25 -59 -53
-120 -51 -114 -84 -186 -87 -195 -2 -5 -17 -39 -61 -138 -27 -60 -46 -104 -49
-112 -2 -6 -21 -49 -82 -185 -25 -55 -51 -113 -58 -130 -8 -16 -26 -57 -40
-90 -38 -83 -48 -108 -51 -124 -1 -8 -9 -18 -16 -22 -7 -5 -10 -9 -5 -9 4 0
-4 -23 -18 -50 l-26 -51 42 -97 c23 -53 49 -113 57 -132 9 -19 15 -38 14 -42
-1 -5 3 -8 8 -8 5 0 9 -3 8 -7 -1 -5 4 -21 10 -36 7 -16 12 -33 12 -38 0 -5 5
-9 12 -9 6 0 8 -3 5 -6 -4 -4 0 -19 8 -33 18 -33 75 -160 75 -166 0 -2 11 -29
25 -59 22 -48 45 -101 50 -116 1 -3 10 -23 20 -45 10 -22 20 -46 21 -54 2 -8
6 -17 11 -20 4 -3 9 -13 11 -21 2 -8 14 -37 27 -65 42 -91 72 -159 105 -240
19 -44 38 -83 43 -86 5 -3 8 -9 8 -13 -1 -3 0 -8 0 -11 1 -3 2 -8 3 -12 1 -5
14 -34 29 -66 15 -32 27 -59 27 -62 0 -2 14 -34 31 -72 17 -37 37 -81 44 -98
7 -16 25 -56 39 -88 14 -32 26 -60 26 -62 0 -2 12 -30 27 -62 15 -32 27 -60
28 -63 1 -3 13 -31 28 -63 15 -32 27 -59 27 -62 0 -2 14 -34 31 -72 45 -99 49
-109 144 -328 48 -110 96 -219 106 -242 40 -91 58 -132 109 -248 28 -66 63
-143 76 -171 13 -28 24 -54 24 -57 0 -4 14 -37 31 -74 17 -38 42 -93 56 -123
14 -30 26 -60 27 -66 1 -7 7 -18 13 -25 6 -8 12 -18 13 -24 4 -20 18 -53 87
-205 14 -30 37 -84 51 -120 14 -36 29 -66 34 -68 4 -2 8 -10 8 -19 0 -8 6 -27
14 -41 8 -15 28 -61 46 -102 33 -77 43 -99 81 -185 12 -28 22 -53 21 -57 -1
-5 3 -8 9 -8 5 0 8 -4 4 -9 -3 -5 -1 -12 5 -16 6 -4 8 -11 5 -16 -4 -5 -1 -9
4 -9 6 0 11 -8 11 -18 0 -10 3 -22 7 -25 3 -4 32 -66 64 -139 l57 -133 9084
-3 9083 -2 68 160 c37 88 67 165 67 170 0 6 5 10 11 10 5 0 8 4 4 9 -3 6 3 24
14 42 11 18 18 36 15 41 -3 4 0 8 5 8 6 0 10 3 9 8 -1 8 14 47 40 102 9 19 17
37 17 40 1 7 114 276 153 360 8 19 17 44 19 55 2 11 8 22 13 23 6 2 10 10 10
18 0 8 9 33 19 57 17 35 117 270 146 342 4 11 7 23 7 28 -1 4 3 7 8 7 6 0 10
6 10 14 0 7 12 40 26 72 27 60 46 105 49 114 4 11 28 68 55 131 17 37 30 72
30 78 0 6 5 11 12 11 6 0 9 3 5 6 -3 4 3 25 15 48 11 22 20 41 18 41 -1 0 5
18 14 40 10 22 17 41 16 43 0 1 6 15 14 30 18 32 38 78 66 152 12 30 25 59 29
65 4 5 18 39 31 75 12 36 25 67 29 70 7 6 31 66 38 98 3 12 9 22 14 22 5 0 8
3 7 8 -1 4 5 21 12 37 7 17 14 33 14 36 1 3 12 30 25 60 48 109 54 124 54 137
0 6 4 12 8 12 4 0 13 17 20 37 6 20 23 62 37 93 14 30 27 63 29 73 1 10 9 28
17 40 7 12 22 45 32 72 9 28 21 55 25 60 4 6 21 46 39 90 18 44 41 99 52 122
11 24 21 49 22 55 2 7 14 36 27 63 13 28 24 52 24 55 4 14 27 69 63 150 37 83
51 120 46 120 -3 0 2 7 10 16 9 8 16 21 16 28 0 12 19 59 41 98 5 10 9 25 9
33 0 8 5 15 12 15 6 0 9 3 6 6 -4 3 5 31 19 62 47 106 51 117 88 207 21 50 45
108 55 130 10 22 30 69 45 105 15 36 31 67 35 70 4 3 20 41 35 85 45 129 41
323 -9 464 -9 24 -13 47 -10 52 3 5 0 9 -5 9 -6 0 -11 9 -11 19 0 11 -4 22 -9
25 -5 4 -15 29 -22 56 -7 28 -16 50 -21 50 -4 0 -8 9 -8 20 0 11 -4 28 -10 38
-5 9 -25 60 -45 112 -20 52 -43 109 -50 125 -7 17 -34 84 -60 150 -26 66 -55
136 -63 155 -8 19 -18 45 -23 58 -5 12 -13 32 -19 45 -39 92 -105 253 -105
257 0 3 -9 23 -20 45 -10 22 -20 45 -21 52 -9 52 -61 120 -187 243 -76 74
-221 216 -323 315 -101 99 -184 180 -184 179 0 0 -66 64 -146 142 -81 79 -207
202 -282 274 -133 129 -140 139 -81 132 43 -6 759 -2 759 3 0 3 -4 13 -10 23
-5 9 -23 46 -39 82 -57 129 -73 166 -98 220 -52 114 -149 321 -205 438 -23 48
-43 89 -43 92 -1 3 -9 22 -19 42 -9 21 -16 41 -17 45 0 5 -7 15 -14 23 -7 8
-13 17 -13 20 1 5 -27 64 -139 300 -30 63 -66 140 -80 170 -51 112 -58 125
-68 132 -5 4 -7 8 -3 8 3 0 -11 36 -33 81 -22 45 -41 86 -42 92 -1 7 -4 14 -7
17 -12 12 -30 51 -30 65 0 8 -5 15 -12 15 -6 0 -8 3 -5 7 4 3 0 14 -8 23 -9
10 -17 27 -20 38 -4 24 -25 65 -36 72 -9 6 -2438 4 -2459 -3 -8 -2 -28 -7 -45
-11 -57 -14 -165 -58 -165 -67 0 -6 -4 -8 -9 -5 -5 3 -20 -5 -35 -19 -14 -13
-26 -22 -26 -19 0 3 -17 -12 -38 -33 l-37 -38 -35 33 c-84 81 -173 127 -305
157 -11 3 -702 6 -1535 7 l-1515 2 -3 -22 c-3 -18 -7 -20 -21 -12 -22 11 -58
19 -141 30 -66 8 -2795 8 -2804 -1 -4 -4 -9 -177 -6 -189 5 -17 5 -390 0 -390
-7 0 -10 13 -13 60 -1 17 -5 30 -9 30 -4 0 -7 8 -6 18 0 18 -8 59 -19 102 -3
14 -7 30 -8 35 -1 6 -3 12 -4 15 -2 3 -4 14 -5 25 -3 18 -16 84 -32 155 -3 14
-8 39 -10 57 -3 18 -9 45 -13 60 l-7 28 -838 0 c-461 0 -842 -2 -846 -5 -8 -5
-14 -37 -26 -135 -2 -22 -7 -58 -10 -80 -3 -22 -7 -58 -9 -80 -6 -52 -25 -145
-35 -170 -41 -102 -53 -131 -61 -140 -5 -5 -9 -17 -9 -27 0 -10 -4 -18 -10
-18 -5 0 -10 -5 -10 -10 0 -16 -73 -164 -84 -172 -6 -4 -8 -8 -3 -8 8 0 -111
-240 -119 -240 -3 0 -3 3 0 8 2 4 7 28 11 52 3 25 8 52 10 60 3 8 7 37 9 64 3
26 8 56 10 65 3 9 8 32 10 51 6 36 9 58 27 170 5 36 12 76 14 90 2 14 11 70
21 125 9 55 18 116 19 135 2 19 4 35 6 35 1 0 3 9 4 20 1 11 5 43 10 70 4 28
9 65 11 83 1 18 6 37 9 42 3 6 0 11 -7 11 -7 1 -1462 2 -3232 3 -3044 1 -3224
0 -3294 -17z"/>
</g>
</svg>
