<svg height="1056" viewBox="0 0 816 1056" width="816" xmlns="http://www.w3.org/2000/svg" xmlns:xlink="http://www.w3.org/1999/xlink"><clipPath id="a"><path d="m0 792h612v-792h-612z"/></clipPath><g clip-path="url(#a)" transform="matrix(1.3333333 0 0 -1.3333333 0 1056)"><g fill="#fafafa"><path d="m0 0c1.468 0 2.621-1.164 2.621-2.792s-1.153-2.792-2.621-2.792h-25.14c-1.466 0-2.619 1.279-2.619 2.908v33.754c0 1.63 1.153 2.911 2.619 2.911h25.14c1.468 0 2.621-1.164 2.621-2.794s-1.153-2.794-2.621-2.794h-22.521v-10.94h17.284c1.468 0 2.62-1.164 2.62-2.794 0-1.629-1.152-2.793-2.62-2.793h-17.284v-11.874z" transform="translate(188.7588 380.8242)"/><path d="m0 0v-27.237c0-1.629-1.152-2.909-2.618-2.909-1.467 0-2.619 1.28-2.619 2.909v34.22c0 1.63 1.152 2.91 2.619 2.91 1.047 0 1.57-.35 2.618-1.514l25.56-28.633v27.237c0 1.63 1.152 2.91 2.618 2.91 1.468 0 2.619-1.28 2.619-2.91v-34.22c0-1.629-1.151-2.909-2.619-2.909-1.048 0-1.57.348-2.618 1.512z" transform="translate(213.3779 405.3857)"/><path d="m0 0h-13.093c-1.467 0-2.619 1.164-2.619 2.793 0 1.63 1.152 2.794 2.619 2.794h31.425c1.466 0 2.619-1.164 2.619-2.794 0-1.629-1.153-2.793-2.619-2.793h-13.095v-31.311c0-1.629-1.152-2.908-2.618-2.908s-2.619 1.279-2.619 2.908z" transform="translate(276.5073 409.4595)"/><path d="m0 0v-13.036h13.722c3.667 0 6.18 2.794 6.18 6.517 0 3.726-2.513 6.519-6.18 6.519zm13.722 5.587c6.286 0 11.419-5.121 11.419-12.106 0-6.167-3.982-10.824-9.219-11.872l9.534-11.173c.94-1.048 1.257-2.91.209-3.957-1.048-1.164-3.038-.816-4.085.464l-12.361 14.434h-9.219v-12.803c0-1.631-1.153-2.795-2.619-2.795s-2.618 1.281-2.618 2.911v33.986c0 1.63 1.152 2.911 2.618 2.911z" transform="translate(319.4346 409.4707)"/><path d="m0 0 7.102 16.344 7.104-16.344zm25.605-13.995-15.476 35.85c-.527 1.235-1.659 1.972-3.027 1.972-1.365 0-2.497-.738-3.019-1.967l-15.49-35.873c-.558-1.341-.096-2.834 1.161-3.582.321-.165.659-.248 1.005-.248.908 0 1.732.575 2.157 1.518l4.828 11.112h18.715l4.837-11.125c.418-.93 1.242-1.505 2.152-1.505.346 0 .684.083 1.065.281 1.193.715 1.657 2.208 1.092 3.567" transform="translate(374.1729 393.0078)"/></g><path d="m0 0-15.658 2.724c-.68.118-1.236-.349-1.236-1.038v-32.107c0-.69.555-1.151 1.233-1.025l15.664 2.911c.678.126 1.232.794 1.232 1.484v25.583c0 .689-.555 1.35-1.235 1.468" fill="#71c5db" transform="translate(440.0127 407.2534)"/><path d="m0 0h-31.77c-.689 0-1.253-.564-1.253-1.253v-39.007c0-.689.564-1.254 1.253-1.254h2.695c.689 0 1.254.565 1.254 1.254v33.226c0 .689.564 1.253 1.254 1.253h21.361c.689 0 1.254-.564 1.254-1.253v-33.226c0-.689.564-1.254 1.254-1.254h2.698c.689 0 1.254.565 1.254 1.254v39.007c0 .689-.565 1.253-1.254 1.253" fill="#71c5db" transform="translate(449.7461 416.7949)"/></g></svg>