<svg enable-background="new 0 0 556.462 245.121" height="245.121" viewBox="0 0 556.462 245.121" width="556.462" xmlns="http://www.w3.org/2000/svg"><path d="m555.301 114.102c-2.143-6.514-9.725-24.842-12.881-32.42l-.068-.166-.029-.074-.035-.068-.09-.166-.256-.496-.334-.646-.125-.24-.195-.191-.52-.516-29.391-28.596h10.496 7.213 2.662l-1.102-2.426-4.748-10.447-15.826-33.564-.148-.32-1.246-2.627-.463-.982h-1.088-2.896l-54.979-.004c-1.762 0-7.705.371-11.484 5.029-3.07-3.297-6.838-5.025-11.004-5.025h-.029-.092c-1.305.035-5.668.076-19.312.076-15.316 0-34.953-.049-42.014-.072h-.955l-1.73-.004-2.605-.008-5.291-.016-1.986-.008.146 1.014c-1.607-.576-3.316-.9-5.115-.979-2.576-.105-9.049-.16-19.226-.16-15.111 0-34.053.121-39.494.156h-.207l-2.242.014-6.43.025-1.736.01.025 1.732.227 14.332-3.066-14.746-.281-1.367h-1.396-5.791-29.609-4.039-1.516l-.186 1.504-.5 4.008-.246 1.965-.004.053c-.33 2.389-.975 4.932-1.506 5.939-.209.398-.664 1.355-1.355 2.811-1.17 2.471-2.977 6.279-5.441 11.254l3.252-20.328.746-5.248.275-1.957h-1.973-7.84-30.406-3.695-1.391-2.684-2.17-10.924-31.77-4.219l-63.42-.004c-2.605 0-11.533 1.035-17.053 14.367-2.264 5.477-5.424 12.787-9.387 21.742-.129.289-.232.527-.316.727-1.631 3.186-1.73 7.861-.309 14.287 1.045 4.744 7.594 17.424 13.41 28.105h-27.515-2.977-1.119l-.451 1.018-1.205 2.727-19.502 44.056-.814 1.846-.305.689.303.691.809 1.842 47.797 109.104 1.199 2.742.451 1.025h1.119 2.988 446.195 3.031 1.137l.443-1.049 1.184-2.789 47.564-112.391c1.805-2.859 3.413-7.712 1.081-14.79z"/><g fill="#fff"><path d="m104.736 81.602c-1.26-3.564-21.043-37.762-21.043-37.762s-4.195-6.625 4.826-6.734c4.406-.055 32.5 0 32.5 0l8.889-29.414h-60.51s-5.33-.322-9.229 9.105c-4.098 9.902-10.02 23.148-10.02 23.148s-1.803 3.773.422 8.602l14.672 29.695s4.863 8.945-4.824 8.961h-30.911l-17.551 39.645h74.393s5.367.361 9.646-11.264c2.523-6.848 8.951-28.109 8.951-28.109s1.049-2.307-.211-5.873z"/><path d="m547.475 116.143c-2.398-7.285-12.695-31.916-12.695-31.916l-41.107-40.438s-7.307-6.809 1.676-6.684h17.619 3.84l-13.869-29.414h-53.629s-7.297-.252-5.514 6.355l7.51 26.387 38.441 42.623s3.713 4.229-2.008 4.146c-5.344-.078-37.193 0-37.193 0l7.561 28.867s2.199 7.418-.107 10.777h82.959c0 .002 10.006-.116 6.516-10.703z"/><path d="m435.746 18.695s-2.607-11.18-9.045-11.004c-6.43.168-64.438 0-64.438 0l13.365 97.732-24.795-31.777 10.334-10.732-4.943-44.389s-.869-10.486-9.219-10.834c-8.338-.35-61.471 0-61.471 0l-.01 79.291-16.772-79.291h-28.348s-.691 5.617-2.434 8.918c-1.736 3.305-32.992 63.906-32.992 63.906l10.372-72.824h-27.318l-11.104 51.963-23.109.143 12.391-52.105h-27.301l-33.412 108.232s-2.908 8.217-4.975 10.924h39.621s-1.768-6.002-.404-10.777l8.744-33.621 23.229.062-6.65 33.559s-2.059 7.646-4.738 10.777h64.412s-2.533-5.105-.854-10.777l6.814-18.557h20.455l.912 18.557s.227 8.566-2.047 10.684l73.264.094s-2.48-5.168-2.812-10.777l-2.09-34.469 26.045 34.469s4.793 6.275 1.266 10.777l72.506.264s-3.703-3.539-5.293-11.041l-6.802-31.742 17.047-.455s5.586-.666 10.113-5.012c4.516-4.346 8.867-9.387 8.867-9.387s5.043-5.391 3.48-13.914c-1.566-8.519-9.861-36.867-9.861-36.867z"/></g><path d="m250.572 78.203h-15.488l13.604-36.758z"/><path d="m328.322 54.434c-.178 0-.324-.008-.424-.018h-12.459l-.77-18.67h12.221c4.424 0 6.105 2.891 6.381 4.418.006 0 .688 2.506.885 7.645.082 2.096-.459 3.758-1.6 4.945-1.406 1.461-3.234 1.68-4.195 1.68z"/><path d="m410.314 55.041h-10.984l-3.391-18.67h12.535c4.42 0 6.096 2.891 6.371 4.418 0-.004 0-.004 0-.004.008 0 .684 2.455 1.52 7.391.406 2.418-.367 3.945-1.092 4.797-1.623 1.922-4.207 2.068-4.959 2.068"/></svg>